<svg width="28" height="28" viewBox="0 0 28 28" fill="none" xmlns="http://www.w3.org/2000/svg">
<path d="M5.37478 27.3334C8.01127 27.3334 10.0829 25.241 10.0829 22.578C10.0829 19.9151 8.01127 17.8226 5.37478 17.8226C2.73828 17.8226 0.666626 19.9151 0.666626 22.578C0.666626 25.241 2.73828 27.3334 5.37478 27.3334ZM5.97821 4.35554C3.94514 4.81265 2.62602 6.06705 2.62602 8.27466C2.62602 10.4805 3.94514 11.6977 5.97821 12.1938L12.3054 13.7529C13.5105 14.0577 14.0754 14.552 14.3385 15.7692L15.8067 22.1989C16.2593 24.2523 17.4644 25.5847 19.6869 25.5847C21.9094 25.5847 23.1145 24.2523 23.5671 22.1989L27.0702 6.2584C27.221 5.53553 27.3333 5.00223 27.3333 4.4707C27.3333 2.26487 25.5633 0.666748 23.3777 0.666748C22.8497 0.666748 22.3234 0.742933 21.7586 0.856326L5.97821 4.35554Z" fill="#ED0334"/>
</svg>
